<?xml version="1.0" encoding="UTF-8"?> <svg xmlns="http://www.w3.org/2000/svg" width="450" height="306" viewBox="0 0 450 306" fill="none"><path d="M443.338 225.981L257.78 208.328C255.483 208.105 253.621 205.576 253.621 202.663V76.9038C253.621 73.9913 255.474 71.4619 257.78 71.2392L443.338 53.5866C447.008 53.2392 450 55.9557 450 59.6608V219.889C450 223.603 447.008 226.328 443.338 225.981Z" fill="#9DBCFE"></path><path d="M440.837 225.739L256.196 208.175C253.907 207.961 252.055 205.432 252.055 202.528V77.0449C252.055 74.1414 253.898 71.612 256.196 71.3982L440.837 53.8346C444.479 53.4873 447.463 56.2037 447.463 59.8999V219.682C447.463 223.37 444.479 226.086 440.837 225.739Z" fill="white"></path><path d="M447.463 59.8921C447.463 56.1959 444.488 53.4794 440.837 53.8268L256.196 71.3904C253.907 71.6042 252.055 74.1336 252.055 77.0371V83.5299L447.463 68.1573V59.8921Z" fill="#8B41D2"></path><path d="M435.403 61.7361C435.403 60.8365 434.69 60.1686 433.799 60.2487C432.918 60.3289 432.205 61.1126 432.205 62.0122C432.205 62.9118 432.918 63.5708 433.799 63.4996C434.681 63.4194 435.403 62.6357 435.403 61.7361Z" fill="white"></path><path d="M427.244 62.4391C427.244 61.5484 426.541 60.8893 425.677 60.9695C424.813 61.0497 424.109 61.8245 424.109 62.7152C424.109 63.6058 424.813 64.2649 425.677 64.1936C426.541 64.1135 427.244 63.3297 427.244 62.4391Z" fill="white"></path><path d="M419.238 63.1333C419.238 62.2515 418.543 61.5925 417.697 61.6726C416.851 61.7439 416.156 62.5187 416.156 63.4005C416.156 64.2822 416.842 64.9324 417.697 64.8611C418.543 64.7899 419.238 64.015 419.238 63.1333Z" fill="white"></path><path d="M337.067 140.531L280.823 140.478C279.692 140.478 278.783 139.356 278.783 137.966V104.469C278.783 103.088 279.701 101.913 280.823 101.859L337.067 98.9914C338.377 98.9201 339.445 100.087 339.445 101.583V137.815C339.436 139.32 338.377 140.531 337.067 140.531Z" fill="#8AEBFF"></path><path d="M337.067 193.266L280.823 189.507C279.692 189.436 278.783 188.252 278.783 186.862V153.365C278.783 151.984 279.701 150.871 280.823 150.889L337.067 151.726C338.377 151.744 339.445 152.973 339.445 154.478V190.71C339.436 192.215 338.377 193.355 337.067 193.266Z" fill="#8B41D2"></path><path d="M314.703 164.419L287.787 163.564V159.689L314.703 160.402V164.419Z" fill="#FFCA60"></path><path d="M287.787 168.738L328.65 170.315" stroke="white" stroke-width="0.7135" stroke-miterlimit="10"></path><path d="M287.787 172.994L328.65 174.802" stroke="white" stroke-width="0.7135" stroke-miterlimit="10"></path><path d="M287.787 177.242L302.189 177.964" stroke="white" stroke-width="0.7135" stroke-miterlimit="10"></path><path d="M404.73 197.789L351.104 194.2C349.75 194.111 348.654 192.81 348.654 191.296V101.145C348.654 99.6308 349.75 98.3482 351.104 98.277L404.73 95.5427C406.27 95.4625 407.526 96.7184 407.526 98.3393V195.037C407.526 196.658 406.279 197.896 404.73 197.789Z" fill="#FF9FD3"></path><path d="M390.025 110.567L357.748 111.68V107.432L390.025 106.158V110.567Z" fill="#8AEBFF"></path><path d="M357.748 117.338L397.836 116.242" stroke="white" stroke-width="0.7135" stroke-miterlimit="10"></path><path d="M357.748 121.986L397.836 121.113" stroke="white" stroke-width="0.7135" stroke-miterlimit="10"></path><path d="M357.748 176.084L397.836 177.856" stroke="white" stroke-width="0.7135" stroke-miterlimit="10"></path><path d="M357.748 180.734L397.836 182.738" stroke="white" stroke-width="0.7135" stroke-miterlimit="10"></path><path d="M357.748 148.35L382.811 148.617" stroke="white" stroke-width="0.7135" stroke-miterlimit="10"></path><path d="M379.666 128.238L397.835 127.988" stroke="white" stroke-width="0.7135" stroke-miterlimit="10"></path><path d="M379.666 133.164L397.835 133.021" stroke="white" stroke-width="0.7135" stroke-miterlimit="10"></path><path d="M379.666 137.493L397.835 137.439" stroke="white" stroke-width="0.7135" stroke-miterlimit="10"></path><path d="M379.666 142.418L397.835 142.471" stroke="white" stroke-width="0.7135" stroke-miterlimit="10"></path><path d="M374.599 143.887L358.639 143.807V126.413L374.599 126.154V143.887Z" stroke="white" stroke-width="0.7135" stroke-miterlimit="10"></path><path d="M379.666 156.908L397.835 157.282" stroke="white" stroke-width="0.7135" stroke-miterlimit="10"></path><path d="M379.666 161.842L397.835 162.314" stroke="white" stroke-width="0.7135" stroke-miterlimit="10"></path><path d="M379.666 166.172L397.835 166.733" stroke="white" stroke-width="0.7135" stroke-miterlimit="10"></path><path d="M379.666 171.096L397.835 171.773" stroke="white" stroke-width="0.7135" stroke-miterlimit="10"></path><path d="M374.599 172.389L358.639 171.774V154.371L374.599 154.656V172.389Z" stroke="white" stroke-width="0.7135" stroke-miterlimit="10"></path><path d="M314.703 113.152L287.787 114.078V110.195L314.703 109.135V113.152Z" fill="#8B41D2"></path><path d="M287.787 119.251L328.65 118.129" stroke="white" stroke-width="0.7135" stroke-miterlimit="10"></path><path d="M287.787 123.502L328.65 122.611" stroke="white" stroke-width="0.7135" stroke-miterlimit="10"></path><path d="M287.787 127.749L302.189 127.518" stroke="white" stroke-width="0.7135" stroke-miterlimit="10"></path><path d="M6.66566 221.527L192.223 203.875C194.521 203.652 196.383 201.123 196.383 198.21V72.4506C196.383 69.5382 194.53 67.0088 192.223 66.7861L6.66566 49.1334C2.99619 48.7861 0.00361633 51.5026 0.00361633 55.2077V215.435C0.00361633 219.149 2.99619 221.875 6.66566 221.527Z" fill="#9DBCFE"></path><path d="M9.16724 221.286L193.808 203.722C196.097 203.508 197.949 200.979 197.949 198.075V72.5918C197.949 69.6883 196.106 67.1588 193.808 66.9451L9.16724 49.3815C5.52448 49.0341 2.5408 51.7506 2.5408 55.4468V215.229C2.5408 218.917 5.52448 221.633 9.16724 221.286Z" fill="white"></path><path d="M2.5408 55.439C2.5408 51.7428 5.51558 49.0263 9.16724 49.3737L193.808 66.9373C196.097 67.151 197.949 69.6805 197.949 72.584V79.0768L2.5408 63.7042V55.439Z" fill="#1F296F"></path><path d="M14.6014 57.283C14.6014 56.3834 15.3139 55.7154 16.2046 55.7956C17.0863 55.8757 17.7988 56.6595 17.7988 57.5591C17.7988 58.4586 17.0863 59.1177 16.2046 59.0465C15.3228 58.9663 14.6014 58.1825 14.6014 57.283Z" fill="white"></path><path d="M22.7595 57.9859C22.7595 57.0953 23.4631 56.4362 24.327 56.5164C25.191 56.5965 25.8945 57.3714 25.8945 58.262C25.8945 59.1527 25.191 59.8118 24.327 59.7405C23.4631 59.6604 22.7595 58.8766 22.7595 57.9859Z" fill="white"></path><path d="M30.766 58.6802C30.766 57.7984 31.4607 57.1393 32.3068 57.2195C33.1529 57.2907 33.8477 58.0656 33.8477 58.9473C33.8477 59.8291 33.1618 60.4793 32.3068 60.408C31.4607 60.3368 30.766 59.5619 30.766 58.6802Z" fill="white"></path><path d="M112.937 136.08L169.181 136.027C170.312 136.027 171.221 134.904 171.221 133.515V100.018C171.221 98.6372 170.303 97.4615 169.181 97.4081L112.937 94.5402C111.627 94.469 110.559 95.6357 110.559 97.132V133.364C110.567 134.869 111.627 136.08 112.937 136.08Z" fill="#86E1D6"></path><path d="M112.937 188.815L169.181 185.056C170.312 184.985 171.221 183.8 171.221 182.411V148.914C171.221 147.533 170.303 146.42 169.181 146.438L112.937 147.275C111.627 147.293 110.559 148.522 110.559 150.027V186.259C110.567 187.764 111.627 188.904 112.937 188.815Z" fill="#1F296F"></path><path d="M135.301 159.968L162.217 159.113V155.238L135.301 155.951V159.968Z" fill="#FFCA60"></path><path d="M162.217 164.287L121.354 165.864" stroke="white" stroke-width="0.7135" stroke-miterlimit="10"></path><path d="M162.217 168.543L121.354 170.351" stroke="white" stroke-width="0.7135" stroke-miterlimit="10"></path><path d="M162.217 172.791L147.815 173.512" stroke="white" stroke-width="0.7135" stroke-miterlimit="10"></path><path d="M45.2743 193.34L98.9003 189.751C100.254 189.662 101.35 188.361 101.35 186.847V96.6957C101.35 95.1816 100.254 93.899 98.9003 93.8278L45.2743 91.0935C43.7335 91.0133 42.4777 92.2691 42.4777 93.8901V190.588C42.4777 192.209 43.7246 193.447 45.2743 193.34Z" fill="#EE6F57"></path><path d="M59.9787 106.118L92.2559 107.231V102.983L59.9787 101.709V106.118Z" fill="#86E1D6"></path><path d="M92.2559 112.888L52.1677 111.793" stroke="white" stroke-width="0.7135" stroke-miterlimit="10"></path><path d="M92.2559 117.537L52.1677 116.664" stroke="white" stroke-width="0.7135" stroke-miterlimit="10"></path><path d="M92.2559 171.635L52.1677 173.407" stroke="white" stroke-width="0.7135" stroke-miterlimit="10"></path><path d="M92.2559 176.285L52.1677 178.289" stroke="white" stroke-width="0.7135" stroke-miterlimit="10"></path><path d="M92.2559 143.9L67.193 144.168" stroke="white" stroke-width="0.7135" stroke-miterlimit="10"></path><path d="M70.3379 123.788L52.1686 123.539" stroke="white" stroke-width="0.7135" stroke-miterlimit="10"></path><path d="M70.3379 128.715L52.1686 128.572" stroke="white" stroke-width="0.7135" stroke-miterlimit="10"></path><path d="M70.3379 133.044L52.1686 132.99" stroke="white" stroke-width="0.7135" stroke-miterlimit="10"></path><path d="M70.3379 137.969L52.1686 138.022" stroke="white" stroke-width="0.7135" stroke-miterlimit="10"></path><path d="M75.4048 139.438L91.3652 139.358V121.963L75.4048 121.705V139.438Z" stroke="white" stroke-width="0.7135" stroke-miterlimit="10"></path><path d="M70.3379 152.459L52.1686 152.833" stroke="white" stroke-width="0.7135" stroke-miterlimit="10"></path><path d="M70.3379 157.393L52.1686 157.865" stroke="white" stroke-width="0.7135" stroke-miterlimit="10"></path><path d="M70.3379 161.723L52.1686 162.284" stroke="white" stroke-width="0.7135" stroke-miterlimit="10"></path><path d="M70.3379 166.646L52.1686 167.323" stroke="white" stroke-width="0.7135" stroke-miterlimit="10"></path><path d="M75.4048 167.94L91.3652 167.325V149.922L75.4048 150.207V167.94Z" stroke="white" stroke-width="0.7135" stroke-miterlimit="10"></path><path d="M135.301 108.7L162.217 109.627V105.743L135.301 104.684V108.7Z" fill="#1F296F"></path><path d="M162.217 114.8L121.354 113.678" stroke="white" stroke-width="0.7135" stroke-miterlimit="10"></path><path d="M162.217 119.051L121.354 118.16" stroke="white" stroke-width="0.7135" stroke-miterlimit="10"></path><path d="M162.217 123.298L147.815 123.066" stroke="white" stroke-width="0.7135" stroke-miterlimit="10"></path><path d="M410.85 272.982L348.585 260.593C347.658 260.406 346.91 259.382 346.91 258.295V214.582C346.91 213.496 347.658 212.685 348.585 212.765L410.85 218.118C412.079 218.225 413.077 219.329 413.077 220.585V271.165C413.077 272.403 412.079 273.222 410.85 272.982Z" fill="#9DBCFE"></path><path d="M409.149 273.818L346.883 261.429C345.957 261.242 345.209 260.218 345.209 259.131V215.418C345.209 214.332 345.957 213.521 346.883 213.601L409.149 218.954C410.378 219.061 411.375 220.165 411.375 221.421V272.001C411.375 273.239 410.378 274.058 409.149 273.818Z" fill="#8AEBFF"></path><path d="M368.501 226.874L352.086 225.039V221.352L368.501 223.044V226.874Z" fill="white"></path><path d="M368.501 258.847L352.086 255.837V232.137L368.501 234.248V258.847Z" fill="#8B41D2"></path><path d="M402.675 246.665L373.168 242.39V234.846L402.675 238.622V246.665Z" stroke="white" stroke-width="0.75" stroke-miterlimit="10"></path><path d="M384.958 255.491C384.958 251.964 382.313 248.704 379.089 248.197C375.909 247.698 373.371 250.085 373.371 253.523C373.371 256.961 375.918 260.212 379.089 260.791C382.313 261.378 384.958 259.009 384.958 255.491Z" fill="white"></path><path d="M402.674 258.491C402.674 254.831 399.824 251.42 396.351 250.885C392.931 250.351 390.188 252.818 390.188 256.372C390.188 259.925 392.922 263.328 396.351 263.951C399.824 264.592 402.674 262.152 402.674 258.491Z" fill="white"></path><path d="M39.156 268.529L101.421 256.14C102.348 255.953 103.096 254.929 103.096 253.842V210.129C103.096 209.042 102.348 208.232 101.421 208.312L39.156 213.665C37.9269 213.772 36.9293 214.876 36.9293 216.132V266.712C36.9293 267.95 37.9269 268.769 39.156 268.529Z" fill="#9DBCFE"></path><path d="M40.8572 269.365L103.122 256.976C104.049 256.789 104.797 255.765 104.797 254.678V210.965C104.797 209.878 104.049 209.068 103.122 209.148L40.8572 214.501C39.6281 214.608 38.6306 215.712 38.6306 216.968V267.548C38.6306 268.786 39.6281 269.605 40.8572 269.365Z" fill="#86E1D6"></path><path d="M81.5052 222.42L97.9199 220.586V216.898L81.5052 218.591V222.42Z" fill="white"></path><path d="M81.5052 254.394L97.9199 251.384V227.684L81.5052 229.794V254.394Z" fill="#1F296F"></path><path d="M47.3307 242.211L76.8379 237.936V230.393L47.3307 234.169V242.211Z" stroke="white" stroke-width="0.75" stroke-miterlimit="10"></path><path d="M65.0474 251.038C65.0474 247.511 67.6927 244.251 70.9168 243.744C74.0964 243.245 76.6348 245.632 76.6348 249.07C76.6348 252.508 74.0875 255.758 70.9168 256.337C67.6927 256.925 65.0474 254.556 65.0474 251.038Z" fill="white"></path><path d="M47.3314 254.038C47.3314 250.378 50.1816 246.967 53.6551 246.432C57.0752 245.898 59.8184 248.365 59.8184 251.919C59.8184 255.472 57.0841 258.875 53.6551 259.498C50.1816 260.139 47.3314 257.699 47.3314 254.038Z" fill="white"></path><path d="M284.636 274.894L317.162 275.464C318.409 275.482 319.389 274.546 319.389 273.335V209.315C319.389 208.149 318.472 207.169 317.269 207.053L284.734 204.087C283.442 203.971 282.338 204.978 282.338 206.269V272.56C282.347 273.807 283.389 274.867 284.636 274.894Z" fill="#FFDC60"></path><path d="M289.418 220.895L312.121 222.685V218.499L289.418 216.584V220.895Z" fill="#FF6089"></path><path d="M312.122 229.292L289.803 227.725" stroke="white" stroke-width="0.75" stroke-miterlimit="10"></path><path d="M312.122 233.059L289.803 231.607" stroke="white" stroke-width="0.75" stroke-miterlimit="10"></path><path d="M312.122 237.157L289.803 235.83" stroke="white" stroke-width="0.75" stroke-miterlimit="10"></path><path d="M308.068 247.559C308.861 247.595 309.511 246.989 309.511 246.214V245.208C309.511 244.442 308.888 243.801 308.104 243.756C307.303 243.712 306.652 244.326 306.652 245.101V246.107C306.652 246.873 307.285 247.524 308.068 247.559Z" fill="#FF6089"></path><path d="M301.006 247.24H301.095C301.879 247.275 302.52 246.669 302.52 245.904V244.844C302.52 244.087 301.896 243.445 301.13 243.41H301.041C300.249 243.374 299.607 243.971 299.607 244.746V245.806C299.607 246.563 300.231 247.204 301.006 247.24Z" fill="white"></path><path d="M293.818 246.919L293.996 246.928C294.771 246.963 295.403 246.367 295.403 245.592V244.478C295.403 243.721 294.789 243.089 294.032 243.053L293.854 243.044C293.07 243.009 292.438 243.606 292.438 244.38V245.494C292.438 246.242 293.052 246.883 293.818 246.919Z" fill="#FF6089"></path><path d="M308.095 255.504C308.879 255.531 309.511 254.934 309.511 254.168V253.161C309.511 252.387 308.87 251.736 308.077 251.701C307.285 251.665 306.652 252.271 306.652 253.037V254.043C306.652 254.818 307.303 255.477 308.095 255.504Z" fill="white"></path><path d="M301.032 255.265H301.122C301.896 255.292 302.52 254.695 302.52 253.938V252.878C302.52 252.112 301.887 251.462 301.104 251.427H301.015C300.231 251.4 299.607 251.988 299.607 252.763V253.823C299.607 254.588 300.249 255.239 301.032 255.265Z" fill="#FF6089"></path><path d="M293.845 255.015L294.023 255.024C294.789 255.051 295.403 254.463 295.403 253.697V252.583C295.403 251.818 294.78 251.176 294.005 251.141L293.827 251.132C293.061 251.105 292.438 251.693 292.438 252.459V253.572C292.437 254.338 293.07 254.988 293.845 255.015Z" fill="white"></path><path d="M263.597 50.8073L266.269 48.8568C266.617 48.5985 267.044 48.4649 267.481 48.4649H294.147C295.278 48.4649 296.195 47.5475 296.195 46.4164V25.3258C296.195 24.1947 295.278 23.2773 294.147 23.2773H263.9C262.769 23.2773 261.852 24.1947 261.852 25.3258V49.9256C261.843 50.8162 262.867 51.3328 263.597 50.8073Z" fill="#FF9FD3"></path><path d="M279.015 40.2186C275.648 39.6574 271.738 34.6431 274.125 31.9978C276.218 29.6733 279.015 32.4788 279.015 32.4788C279.015 32.4788 281.811 29.6733 283.904 31.9978C286.3 34.652 282.39 39.6574 279.015 40.2186Z" stroke="#1F296F" stroke-width="0.75" stroke-miterlimit="10"></path><path d="M244.732 32.3473C248.765 22.6128 244.142 11.4526 234.408 7.42035C224.673 3.3881 213.513 8.01071 209.481 17.7452C205.448 27.4797 210.071 38.6399 219.806 42.6721C229.54 46.7044 240.7 42.0818 244.732 32.3473Z" fill="white"></path><path d="M230.793 19.8965H217.371V30.1835H230.793V19.8965Z" fill="white"></path><path d="M230.793 19.8965H217.371V30.1835H230.793V19.8965Z" stroke="#6887FF" stroke-width="0.75" stroke-miterlimit="10" stroke-linecap="round" stroke-linejoin="round"></path><path d="M236.823 28.9827L230.793 26.8986V23.1935L236.823 21.1094V28.9827Z" fill="white"></path><path d="M236.823 28.9827L230.793 26.8986V23.1935L236.823 21.1094V28.9827Z" stroke="#6887FF" stroke-width="0.75" stroke-miterlimit="10" stroke-linecap="round" stroke-linejoin="round"></path><path d="M176.085 61.9312C183.807 61.9312 190.068 55.6707 190.068 47.948C190.068 40.2253 183.807 33.9648 176.085 33.9648C168.362 33.9648 162.102 40.2253 162.102 47.948C162.102 55.6707 168.362 61.9312 176.085 61.9312Z" fill="#FFCA60"></path><path d="M177.722 42.334L181.783 53.5473L170.383 51.0089L177.722 42.334Z" stroke="white" stroke-width="0.75" stroke-miterlimit="10"></path><path d="M179.38 42.3354C179.38 41.4181 178.641 40.6699 177.714 40.6699C176.797 40.6699 176.049 41.4181 176.049 42.3354C176.049 43.2528 176.797 44.001 177.714 44.001C178.641 43.992 179.38 43.2528 179.38 42.3354Z" fill="white"></path><path d="M172.049 51.0112C172.049 50.0938 171.301 49.3457 170.383 49.3457C169.466 49.3457 168.727 50.0938 168.727 51.0112C168.727 51.9286 169.466 52.6767 170.383 52.6767C171.301 52.6767 172.049 51.9286 172.049 51.0112Z" fill="white"></path><path d="M183.448 53.5483C183.448 52.631 182.7 51.8828 181.783 51.8828C180.865 51.8828 180.117 52.622 180.117 53.5483C180.117 54.4657 180.865 55.2138 181.783 55.2138C182.7 55.2138 183.448 54.4657 183.448 53.5483Z" fill="white"></path><path d="M158.538 205.414L122.912 203.188V254.088H158.538V205.414Z" fill="#0060DE"></path><path d="M154.086 211.204L130.572 210.207L130.706 212.942L154.308 214.278L154.086 211.204Z" fill="white"></path><path d="M140.218 219.665L130.572 218.561V243.802H139.39L140.218 219.665Z" stroke="white" stroke-width="0.75" stroke-miterlimit="10"></path><path d="M154.681 219.665L145.035 218.561L144.287 243.802H153.639L154.681 219.665Z" stroke="white" stroke-width="0.75" stroke-miterlimit="10"></path><path d="M226.833 101.974C236.021 101.974 243.47 94.5251 243.47 85.3365C243.47 76.148 236.021 68.6992 226.833 68.6992C217.644 68.6992 210.195 76.148 210.195 85.3365C210.195 94.5251 217.644 101.974 226.833 101.974Z" fill="#AC64F2"></path><path d="M236.798 82.4421C234.242 79.9037 230.715 78.3184 226.832 78.3184C222.939 78.3184 219.412 79.9037 216.865 82.4421" stroke="white" stroke-width="0.75" stroke-miterlimit="10"></path><path d="M220.971 86.5475C222.476 85.0512 224.551 84.125 226.831 84.125C229.111 84.125 231.186 85.0512 232.692 86.5475" stroke="white" stroke-width="0.75" stroke-miterlimit="10"></path><path d="M225.078 90.6531C225.532 90.1988 226.156 89.9316 226.833 89.9316C227.519 89.9316 228.142 90.2077 228.587 90.6531" stroke="white" stroke-width="0.75" stroke-miterlimit="10"></path><path d="M216.674 297.971C216.377 295.437 204.365 270.399 207.014 266.696C209.436 263.303 212.113 254.517 212.545 253.062C223.792 256.141 236.582 257.343 247.305 253.091C246.646 257.178 251.023 258.741 254.925 266.504C258.056 272.731 255.825 282.831 254.373 296.882C239.677 305.635 216.71 298.29 216.674 297.971Z" fill="#1F296F"></path><path d="M234.876 166.248C234.876 166.248 244.253 170.464 236.217 184.187C228.189 197.917 249.285 195.721 241.074 210.291C232.863 224.867 196.474 178.918 209.549 168.512C222.624 158.105 234.876 166.248 234.876 166.248Z" fill="#1F296F"></path><path d="M236.937 171.807C236.937 171.807 240.398 163.695 235.671 160.303C230.944 156.91 220.172 157.901 214.942 161.431C208.667 165.662 212.06 167.568 209.986 168.315C206.746 169.482 202.225 176.061 206.746 185.248C211.267 194.435 202.942 188.137 204.543 197.911C205.282 202.432 190.309 210.513 199.351 219.418C208.393 228.323 235.663 222.247 233.117 210.376C230.578 198.513 236.937 171.807 236.937 171.807Z" fill="#1F296F"></path><path d="M199.884 215.048C199.663 211.366 201.927 208.004 205.419 206.792C221.521 201.173 239.238 203.01 245.185 203.864C246.664 204.078 247.907 205.061 248.448 206.456C249.523 209.247 250.583 213.47 250.583 213.47C250.583 213.47 255.37 218.815 255.569 225.821C255.691 230.083 252.481 234.848 249.271 241.976C248.158 244.446 246.916 247.953 246.397 252.817C234.855 259.724 221.086 257.772 208.979 252.771C209.025 252.558 209.208 241.595 209.208 241.595C202.324 225.119 200.334 222.39 199.884 215.048Z" fill="white"></path><path d="M231.73 215.513C231.73 215.513 240.032 219.508 241.046 216.329C242.068 213.15 235.549 202.888 235.549 202.888C235.549 202.888 233.056 201.348 232.004 203.002C230.952 204.657 231.73 215.513 231.73 215.513Z" stroke="#1F296F" stroke-width="0.8569" stroke-miterlimit="10" stroke-linecap="round" stroke-linejoin="round"></path><path d="M231.729 215.513C231.729 215.513 225.363 221.803 223.114 219.325C220.865 216.855 218.418 203.177 218.418 203.177C218.418 203.177 224.166 202.385 225.813 203.444C227.452 204.519 231.729 215.513 231.729 215.513Z" stroke="#1F296F" stroke-width="0.8569" stroke-miterlimit="10" stroke-linecap="round" stroke-linejoin="round"></path><path d="M246.924 204.558L278.41 225.821L300.809 198.733C302.273 196.965 304.88 196.675 306.695 198.085C308.433 199.442 308.852 201.905 307.648 203.75L286.316 236.609C283.983 240.2 279.318 241.442 275.513 239.491L250.385 226.614L246.924 204.558Z" fill="#AC64F2"></path><path d="M308.531 201.852L310.627 199.26C313.837 198.703 314.942 195.539 314.942 195.539C316.841 195.143 320.325 192.131 319.852 190.904C319.379 189.676 315.971 184.767 315.971 184.767C315.971 184.767 316.132 184.134 317.794 183.341C319.456 182.548 320.569 180.962 320.012 181.046C319.456 181.13 315.102 181.999 314.233 182.472C313.364 182.945 308.691 186.116 308.691 186.116C308.691 186.116 305.527 191.819 304.49 194.113C304.017 195.166 303.262 196.66 302.584 197.963C301.745 199.572 302.248 201.547 303.75 202.568C305.283 203.605 307.364 203.3 308.531 201.852Z" fill="#FF6089"></path><path d="M314.944 195.54C314.944 195.54 313.282 195.617 313.755 194.351C314.227 193.086 315.813 192.125 316.766 191.096" fill="#FF6089"></path><path d="M314.944 195.54C314.944 195.54 313.282 195.617 313.755 194.351C314.227 193.086 315.813 192.125 316.766 191.096" stroke="#1F296F" stroke-width="0.8569" stroke-miterlimit="10" stroke-linecap="round" stroke-linejoin="round"></path><path d="M315.575 188.809C315.575 188.809 313.92 190.631 312.647 191.66C311.374 192.689 311.542 193.718 312.647 194.039" fill="#FF6089"></path><path d="M315.575 188.809C315.575 188.809 313.92 190.631 312.647 191.66C311.374 192.689 311.542 193.718 312.647 194.039" stroke="#1F296F" stroke-width="0.8569" stroke-miterlimit="10" stroke-linecap="round" stroke-linejoin="round"></path><path d="M285.006 238.157C285.006 238.157 285.738 234.734 279.677 235.207C273.616 235.68 274.416 239.026 275.506 239.492" stroke="white" stroke-width="0.75" stroke-miterlimit="10"></path><path d="M235.557 202.883C235.557 202.883 244.759 218.695 244.043 238.41C243.334 258.125 252.124 288.064 251.651 298.753C251.651 298.753 255.059 297.769 260.083 290.321C260.083 290.321 254.022 258.133 252.124 251.714C250.226 245.302 250.431 239.485 250.431 239.485C250.431 239.485 256.637 232.822 257.468 228.667C258.299 224.512 254.381 217.261 251.407 213.343C251.407 213.343 249.562 205.383 246.924 204.194C244.279 203.02 235.024 201.854 235.557 202.883Z" fill="#8B41D2"></path><path d="M250.43 239.492C250.43 239.492 256.635 232.829 257.466 228.674C258.297 224.519 254.379 217.268 251.406 213.35" stroke="#1F296F" stroke-width="0.8569" stroke-miterlimit="10" stroke-linecap="round" stroke-linejoin="round"></path><path d="M217.557 203.012C218.19 202.913 218.8 203.294 218.998 203.904C220.118 207.395 223.686 219.266 224.09 230.45C224.563 243.754 219.935 252.071 220.172 260.267C220.408 268.462 219.981 305.88 219.981 305.88C219.981 305.88 200.144 299.225 198.779 291.624L207.585 248.854C208.096 246.391 207.806 243.83 206.761 241.543C204.063 235.611 198.932 223.665 199.084 218.801C199.29 212.198 201.28 208.005 203.186 206.816C204.871 205.764 213.89 203.568 217.557 203.012Z" fill="#8B41D2"></path><path d="M231.73 193.983C231.73 193.983 233.194 200.875 235.337 207.287C235.337 207.287 237.159 216.092 230.899 215.49C226.394 215.055 223.329 210.252 221.964 207.599C221.454 206.6 221.171 205.495 221.126 204.374C221.027 201.607 220.623 195.561 218.953 191.52C216.727 186.146 230.068 191.925 231.73 193.983Z" fill="#FF6089"></path><path d="M221.322 192.832C224.829 193.419 228.336 194.89 231.843 194.517C232.049 195.439 232.522 197.498 233.2 200.052C228.748 198.466 224.402 196.789 221.322 192.832Z" fill="#1F296F"></path><path d="M234.924 165.09C235.899 166.676 236.395 168.505 236.547 170.358C236.707 172.279 237.165 175.603 238.499 178.638C239.536 180.978 240.725 190.462 236.464 194.655C229.655 201.357 220.042 192.757 220.042 192.757C220.042 192.757 215.292 188.213 212.304 174.704C211.358 170.434 227.475 152.999 234.924 165.09Z" fill="#FF6089"></path><path d="M228.129 180.069C228.075 179.574 227.626 179.216 227.13 179.269C226.634 179.322 226.276 179.772 226.329 180.268" stroke="#1F296F" stroke-width="0.8569" stroke-miterlimit="10" stroke-linecap="round" stroke-linejoin="round"></path><path d="M237.163 178.012C237.064 177.524 236.592 177.196 236.096 177.295C235.6 177.394 235.28 177.867 235.379 178.362" stroke="#1F296F" stroke-width="0.8569" stroke-miterlimit="10" stroke-linecap="round" stroke-linejoin="round"></path><path d="M226.634 174.284C225.559 174.261 223.745 174.681 222.464 176.426C220.718 178.813 225.384 175.938 226.703 176.205C228.037 176.464 227.953 174.315 226.634 174.284Z" fill="#1F296F"></path><path d="M234.565 173.446C235.053 172.905 236.013 173.24 236.303 173.599C237.363 174.918 235.556 174.445 234.885 175.024C234.214 175.604 234.122 173.942 234.565 173.446Z" fill="#1F296F"></path><path d="M239.81 171.089C239.81 171.089 236.661 176.227 228.465 175.381C220.27 174.535 217.861 174.497 217.861 174.497C217.861 174.497 220.544 179.582 217.861 183.256C215.177 186.931 210.229 184.248 210.229 184.248C210.229 184.248 205.784 188.753 209.024 178.728C212.265 168.695 222.603 157.556 230.455 159.394C238.308 161.216 240 169.236 239.81 171.089Z" fill="#1F296F"></path><path d="M217.427 184.547C217.427 184.547 214.904 181.277 212.693 182.306C210.482 183.327 212.846 189.648 218.289 188.855" fill="#FF6089"></path><path d="M230.737 180.023C231.003 182.439 229.265 184.604 226.848 184.871C224.432 185.138 222.267 183.4 222 180.983C221.733 178.566 223.471 176.401 225.888 176.134C228.297 175.868 230.47 177.613 230.737 180.023Z" stroke="#1F296F" stroke-width="0.8569" stroke-miterlimit="10" stroke-linecap="round" stroke-linejoin="round"></path><path d="M240.099 178.063C240.366 180.48 239.032 182.607 237.118 182.813C235.204 183.026 233.443 181.235 233.177 178.826C232.91 176.409 234.244 174.282 236.157 174.076C238.071 173.862 239.832 175.646 240.099 178.063Z" stroke="#1F296F" stroke-width="0.8569" stroke-miterlimit="10" stroke-linecap="round" stroke-linejoin="round"></path><path d="M230.051 178.11C230.051 178.11 230.699 177.622 231.644 177.484" stroke="#1F296F" stroke-width="0.8569" stroke-miterlimit="10" stroke-linecap="round" stroke-linejoin="round"></path><path d="M234.176 190.043C234.176 190.043 231.546 188.282 228.68 189.159C228.68 189.159 229.526 190.676 231.455 190.905C233.384 191.141 234.077 190.638 234.176 190.043Z" fill="#F24678"></path><path d="M234.185 187.611C234.185 187.611 234.97 190.935 232.027 190.943C228.353 190.95 228.002 186.65 228.002 186.65C232.584 188.663 235.298 187.276 235.298 187.276" stroke="#1F296F" stroke-width="0.8569" stroke-miterlimit="10" stroke-linecap="round" stroke-linejoin="round"></path><path d="M233.162 177.799C233.162 177.799 232.521 180.49 234.938 181.71C235.487 181.984 235.563 182.739 235.106 183.151L233.07 184.965" fill="#FF6089"></path><path d="M233.162 177.799C233.162 177.799 232.521 180.49 234.938 181.71C235.487 181.984 235.563 182.739 235.106 183.151L233.07 184.965" stroke="#1F296F" stroke-width="0.8569" stroke-miterlimit="10" stroke-linecap="round" stroke-linejoin="round"></path><path d="M217.862 174.49C217.862 174.49 231.302 180.048 239.277 172.211C247.251 164.381 245.33 154.18 228.291 157.527C211.252 160.882 206.571 161.171 207.851 173.125C209.125 185.08 217.862 174.49 217.862 174.49Z" fill="#1F296F"></path><path d="M230.287 162.329C230.287 162.329 251.1 152.959 241.418 172.255" stroke="#1F296F" stroke-width="0.75" stroke-miterlimit="10" stroke-linecap="round" stroke-linejoin="round"></path><path d="M206.282 177.471C206.282 177.471 203.819 183.577 206.282 186.94C208.744 190.302 200.48 190.363 204.071 196.279C207.662 202.195 197.835 196.713 199.161 208.195" stroke="#1F296F" stroke-width="0.75" stroke-miterlimit="10" stroke-linecap="round" stroke-linejoin="round"></path><path d="M306.07 190.95C306.07 190.95 310.622 185.88 313.946 185.339C316.172 184.973 311.14 189.608 311.216 190.554C311.293 191.507 312.009 194.67 309.554 196.889" fill="#FF6089"></path><path d="M306.07 190.95C306.07 190.95 310.622 185.88 313.946 185.339C316.172 184.973 311.14 189.608 311.216 190.554C311.293 191.507 312.009 194.67 309.554 196.889" fill="#FF6089"></path><path d="M306.07 190.95C306.07 190.95 310.622 185.88 313.946 185.339C316.172 184.973 311.14 189.608 311.216 190.554C311.293 191.507 312.009 194.67 309.554 196.889" stroke="#1F296F" stroke-width="0.8569" stroke-miterlimit="10" stroke-linecap="round" stroke-linejoin="round"></path><path d="M199.289 212.198L185.756 240.406L150.161 263.354C148.308 264.543 147.805 267.028 149.032 268.851C150.092 270.421 152.135 271.008 153.866 270.246L190.117 254.251C193.967 252.551 197.177 249.661 199.274 246.009L214.171 220.02C216.374 216.17 215.215 211.268 211.517 208.82C207.263 206.007 201.5 207.6 199.289 212.198Z" fill="#AC64F2"></path><path d="M198.693 247.033C198.693 247.033 197.359 244.829 193.44 248.512C189.521 252.194 190.772 253.963 190.772 253.963" stroke="white" stroke-width="0.75" stroke-miterlimit="10"></path><path d="M231.73 215.516C231.73 215.516 232.897 216.743 233.194 217.559C233.492 218.375 233.979 225.724 233.979 225.724" stroke="#1F296F" stroke-width="0.8569" stroke-miterlimit="10" stroke-linecap="round" stroke-linejoin="round"></path><path d="M214.744 218.801L206.617 241.23L204.619 236.702L214.744 218.801Z" fill="#1F296F"></path><path d="M217.366 188.92C217.366 188.92 219.143 191.489 222.086 195.797C225.028 200.104 225.509 205.845 218.518 206.31C211.527 206.775 205.755 205.525 201.433 208.795C197.11 212.066 208.904 197.908 210.048 196.338" fill="#1F296F"></path><path d="M231.432 236.174C231.432 236.174 228.467 239.422 224.121 241.228" stroke="#1F296F" stroke-width="0.8569" stroke-miterlimit="10" stroke-linecap="round" stroke-linejoin="round"></path><path d="M149.055 264.626C149.055 264.626 141.454 265.495 139.434 266.28C137.406 267.065 130.888 272.25 130.102 274.369C129.317 276.488 135.843 271.632 137.017 271.373C138.191 271.114 140.28 274.369 142.819 275.429C145.358 276.488 147.546 273.271 147.546 273.271C147.546 273.271 150.138 272.105 151.899 270.511L154.171 269.154C155.711 268.072 155.62 266.044 154.918 264.961C154.24 263.452 152.417 262.826 150.954 263.612L149.055 264.626Z" fill="#FF6089"></path><path d="M143.75 266.195C143.75 266.195 138.627 268.543 138.726 269.718C138.886 271.57 142.05 269.001 143.155 269.489C144.269 269.977 146.22 272.394 148.835 269.489" fill="#FF6089"></path><path d="M143.75 266.195C143.75 266.195 138.627 268.543 138.726 269.718C138.886 271.57 142.05 269.001 143.155 269.489C144.269 269.977 146.22 272.394 148.835 269.489" stroke="#1F296F" stroke-miterlimit="10"></path><path d="M147.546 273.271C147.546 273.271 147.92 270.64 144.352 273.271" stroke="#1F296F" stroke-width="0.8235" stroke-miterlimit="10"></path><path d="M145.747 272.396C145.747 272.396 146.631 271.527 145.548 270.932C144.458 270.338 140.875 272.686 140.875 272.686" stroke="#1F296F" stroke-width="0.8235" stroke-miterlimit="10"></path></svg> 